<?xml version="1.0" encoding="UTF-8"?>
<!DOCTYPE svg PUBLIC "-//W3C//DTD SVG 1.1//EN" "http://www.w3.org/Graphics/SVG/1.1/DTD/svg11.dtd">
<svg xmlns="http://www.w3.org/2000/svg" version="1.1" width="359px" height="378px" style="shape-rendering:geometricPrecision; text-rendering:geometricPrecision; image-rendering:optimizeQuality; fill-rule:evenodd; clip-rule:evenodd" xmlns:xlink="http://www.w3.org/1999/xlink">
<g><path style="opacity:1" fill="#fdfdfd" d="M -0.5,-0.5 C 119.167,-0.5 238.833,-0.5 358.5,-0.5C 358.5,125.5 358.5,251.5 358.5,377.5C 238.833,377.5 119.167,377.5 -0.5,377.5C -0.5,251.5 -0.5,125.5 -0.5,-0.5 Z"/></g>
<g><path style="opacity:1" fill="#000000" d="M 242.5,10.5 C 246.909,9.61847 250.409,10.9518 253,14.5C 255.742,19.9773 257.908,25.644 259.5,31.5C 262.85,31.665 266.183,31.4983 269.5,31C 275.921,24.5753 282.921,18.9086 290.5,14C 294.944,13.7496 297.778,15.9163 299,20.5C 299.333,28.8333 299.667,37.1667 300,45.5C 303.691,52.7387 305.857,60.4054 306.5,68.5C 306.387,77.4357 302.387,83.9357 294.5,88C 307.051,84.2231 311.218,88.7231 307,101.5C 303.712,106.908 299.212,111.074 293.5,114C 288.441,117.612 286.274,122.446 287,128.5C 296.303,147.576 290.469,157.576 269.5,158.5C 264.731,162.293 259.731,162.46 254.5,159C 240.712,158.902 227.046,157.568 213.5,155C 195.399,147.952 190.899,135.785 200,118.5C 204.538,113.415 208.038,107.748 210.5,101.5C 210.333,100.5 210.167,99.5 210,98.5C 206.914,95.4829 203.914,92.4829 201,89.5C 200.359,82.6359 203.526,78.9693 210.5,78.5C 223.344,80.8449 230.511,88.5115 232,101.5C 235.882,97.2861 239.382,92.7861 242.5,88C 231.811,83.6322 226.144,75.6322 225.5,64C 227.882,52.5262 230.049,41.0262 232,29.5C 234.483,22.5276 237.983,16.1943 242.5,10.5 Z"/></g>
<g><path style="opacity:1" fill="#000000" d="M 101.5,12.5 C 129.937,14.4363 148.104,29.103 156,56.5C 157.192,66.1299 159.525,75.4632 163,84.5C 164.588,102.571 160.588,119.238 151,134.5C 146.272,139.504 140.939,140.504 135,137.5C 133.964,135.13 133.464,132.63 133.5,130C 134.145,125.131 134.645,120.298 135,115.5C 128.258,121.12 121.425,126.62 114.5,132C 110.333,138.167 106.167,144.333 102,150.5C 97.605,155.241 92.2717,158.241 86,159.5C 80.5217,159.518 77.355,156.852 76.5,151.5C 77.5077,147.482 78.5077,143.482 79.5,139.5C 76.1501,139.335 72.8168,139.502 69.5,140C 63.1584,144.67 56.1584,148.004 48.5,150C 42.9688,151.358 38.1355,150.191 34,146.5C 34.3028,140.069 37.1361,134.902 42.5,131C 39.8941,129.062 38.0608,126.562 37,123.5C 36.2532,116.378 36.7532,109.378 38.5,102.5C 36.2129,95.2254 34.8796,87.7254 34.5,80C 34.4301,74.6837 35.2634,69.517 37,64.5C 40.4824,61.9787 43.9824,62.1453 47.5,65C 52.5,68.6667 57.5,72.3333 62.5,76C 69.1211,75.6711 75.7877,75.5044 82.5,75.5C 80.6578,59.2947 86.3245,55.628 99.5,64.5C 107.56,56.7007 117.227,53.034 128.5,53.5C 124.016,41.5347 115.349,34.3681 102.5,32C 99.2397,31.2165 96.0731,31.3832 93,32.5C 92.3623,33.6086 91.8623,34.7753 91.5,36C 93.5408,43.315 90.7074,47.4816 83,48.5C 75.5661,47.1565 72.0661,42.6565 72.5,35C 73.7292,25.7627 78.7292,19.4294 87.5,16C 92.2242,14.5058 96.8909,13.3391 101.5,12.5 Z"/></g>
<g><path style="opacity:1" fill="#fefffe" d="M 244.5,13.5 C 246.722,13.178 248.556,13.8446 250,15.5C 253.031,21.5994 255.864,27.7661 258.5,34C 263.287,34.8785 267.953,34.5452 272.5,33C 278.755,26.741 285.588,21.241 293,16.5C 294.74,17.7158 295.74,19.3825 296,21.5C 296.333,29.8333 296.667,38.1667 297,46.5C 302.922,56.6784 304.255,67.3451 301,78.5C 298.218,83.2805 294.218,86.6139 289,88.5C 286.924,91.2171 286.257,94.2171 287,97.5C 292.025,93.9042 297.525,91.2375 303.5,89.5C 306.016,93.8177 305.849,98.151 303,102.5C 299.592,105.453 296.092,108.287 292.5,111C 285.698,115.432 282.865,121.599 284,129.5C 287.529,136.258 288.196,143.258 286,150.5C 281.872,154.028 277.039,155.362 271.5,154.5C 272.032,142.713 270.198,131.379 266,120.5C 266.169,130.029 267.002,139.529 268.5,149C 268.535,158.518 264.369,161.018 256,156.5C 252.08,149.07 248.747,141.403 246,133.5C 245.8,141.033 247.633,148.033 251.5,154.5C 237.556,157.775 227.389,153.108 221,140.5C 220.473,131.274 222.473,122.607 227,114.5C 231.277,107.621 236.277,101.288 242,95.5C 243.003,92.3006 244.837,89.8006 247.5,88C 239.248,84.0824 233.415,77.9158 230,69.5C 229.72,56.6068 231.387,43.9402 235,31.5C 237.4,25.03 240.567,19.03 244.5,13.5 Z"/></g>
<g><path style="opacity:1" fill="#fefefe" d="M 96.5,16.5 C 128.575,15.8812 147.575,31.3812 153.5,63C 153.167,64 152.833,65 152.5,66C 163.239,87.015 162.739,107.848 151,128.5C 148.031,134.655 143.364,136.655 137,134.5C 137.694,123.734 139.027,113.067 141,102.5C 132.331,113.001 122.498,122.334 111.5,130.5C 107.178,138.992 101.511,146.492 94.5,153C 90.3557,155.798 86.0223,156.465 81.5,155C 80.1955,154.196 79.5288,153.029 79.5,151.5C 80.1007,147.326 81.2673,143.326 83,139.5C 89.7935,138.573 95.6268,135.74 100.5,131C 96.8347,131.984 93.168,133.317 89.5,135C 78.8333,137 68.1667,137 57.5,135C 50.2481,132.738 44.4148,128.571 40,122.5C 39.4422,116.079 39.9422,109.746 41.5,103.5C 41.3993,99.0298 40.566,94.6964 39,90.5C 38.3333,83.5 38.3333,76.5 39,69.5C 39.1962,67.7139 40.0295,66.3805 41.5,65.5C 47.5378,69.8454 53.5378,74.1788 59.5,78.5C 65.6496,79.5539 71.8163,79.5539 78,78.5C 80.3023,78.6004 82.3023,79.267 84,80.5C 85.1622,75.2081 86.1622,69.8748 87,64.5C 87.7253,62.842 88.892,62.342 90.5,63C 103.048,70.5991 111.382,81.4324 115.5,95.5C 116.711,92.1243 116.544,88.791 115,85.5C 111.6,78.5354 107.1,72.3687 101.5,67C 106.547,61.309 112.88,57.9757 120.5,57C 128.603,56.341 136.603,56.6743 144.5,58C 140.719,55.7754 136.719,54.1087 132.5,53C 127.513,40.0184 118.18,32.0184 104.5,29C 98.6781,27.7109 93.5114,28.8776 89,32.5C 88.7852,35.8557 88.7852,39.189 89,42.5C 83.636,46.4973 79.3027,45.4973 76,39.5C 74.2639,31.8094 76.7639,25.976 83.5,22C 87.7415,19.6512 92.0748,17.8179 96.5,16.5 Z"/></g>
<g><path style="opacity:1" fill="#000000" d="M 258.5,57.5 C 260.894,59.3318 261.894,61.8318 261.5,65C 262.24,68.6589 260.907,70.8256 257.5,71.5C 257.226,66.737 257.559,62.0704 258.5,57.5 Z"/></g>
<g><path style="opacity:1" fill="#000000" d="M 286.5,57.5 C 288.894,59.3318 289.894,61.8318 289.5,65C 290.24,68.6589 288.907,70.8256 285.5,71.5C 285.226,66.737 285.559,62.0704 286.5,57.5 Z"/></g>
<g><path style="opacity:1" fill="#000000" d="M 315.5,60.5 C 322.2,60.17 328.866,60.5033 335.5,61.5C 327.855,62.6648 320.188,62.8315 312.5,62C 313.737,61.7679 314.737,61.2679 315.5,60.5 Z"/></g>
<g><path style="opacity:1" fill="#000000" d="M 311.5,66.5 C 318.308,65.3863 324.974,66.3863 331.5,69.5C 331,69.8333 330.5,70.1667 330,70.5C 323.836,69.1006 317.669,67.7673 311.5,66.5 Z"/></g>
<g><path style="opacity:1" fill="#000000" d="M 312.5,68.5 C 316.512,69.8414 319.845,72.1747 322.5,75.5C 321.998,76.521 321.332,76.6877 320.5,76C 317.287,73.95 314.621,71.45 312.5,68.5 Z"/></g>
<g><path style="opacity:1" fill="#fefffe" d="M 206.5,81.5 C 223.8,83.301 230.3,92.6343 226,109.5C 223.46,115.906 219.46,121.24 214,125.5C 210.027,131.817 211.194,136.817 217.5,140.5C 219.548,146.035 222.881,150.535 227.5,154C 216.834,154.443 208.001,150.61 201,142.5C 197.674,135.068 198.007,127.735 202,120.5C 205.911,115.678 209.578,110.678 213,105.5C 213.667,102.833 213.667,100.167 213,97.5C 209.714,94.1073 206.548,90.6073 203.5,87C 204.124,84.9149 205.124,83.0816 206.5,81.5 Z"/></g>
<g><path style="opacity:1" fill="#000000" d="M 10.5,106.5 C 18.0105,106.17 24.6771,108.337 30.5,113C 24.7619,111.539 18.9286,110.039 13,108.5C 11.6244,108.316 10.7911,107.649 10.5,106.5 Z"/></g>
<g><path style="opacity:1" fill="#000000" d="M 48.5,112.5 C 53.9574,111.895 57.9574,113.895 60.5,118.5C 60.1667,119.167 59.8333,119.833 59.5,120.5C 56.0028,117.553 52.0028,115.553 47.5,114.5C 47.8627,113.817 48.1961,113.15 48.5,112.5 Z"/></g>
<g><path style="opacity:1" fill="#000000" d="M 89.5,112.5 C 92.1569,112.162 94.4902,112.829 96.5,114.5C 96.1667,114.833 95.8333,115.167 95.5,115.5C 90.3432,116.923 85.3432,118.59 80.5,120.5C 80.2965,118.61 80.9632,117.11 82.5,116C 84.9252,114.787 87.2585,113.621 89.5,112.5 Z"/></g>
<g><path style="opacity:1" fill="#000000" d="M 12.5,115.5 C 19.2414,115.171 25.908,115.671 32.5,117C 25.5,117.667 18.5,117.667 11.5,117C 12.056,116.617 12.3893,116.117 12.5,115.5 Z"/></g>
<g><path style="opacity:1" fill="#000000" d="M 19.5,120.5 C 32.5443,120.145 32.711,121.145 20,123.5C 18.3167,122.824 18.1501,121.824 19.5,120.5 Z"/></g>
<g><path style="opacity:1" fill="#fefffe" d="M 217.5,125.5 C 218.043,125.56 218.376,125.893 218.5,126.5C 217.906,129.83 217.24,133.164 216.5,136.5C 215.304,135.441 214.637,134.107 214.5,132.5C 215.237,130.03 216.237,127.696 217.5,125.5 Z"/></g>
<g><path style="opacity:1" fill="#fefffe" d="M 43.5,132.5 C 50.2337,135.524 57.2337,138.024 64.5,140C 59.6203,142.607 54.6203,144.94 49.5,147C 46.1667,147.667 42.8333,147.667 39.5,147C 38.09,146.632 37.09,145.799 36.5,144.5C 38.3404,140.144 40.6737,136.144 43.5,132.5 Z"/></g>
<g><path style="opacity:1" fill="#000000" d="M 289.5,170.5 C 293.33,171.485 296.163,173.819 298,177.5C 300.787,183.404 303.287,189.404 305.5,195.5C 316.492,200.491 323.492,208.825 326.5,220.5C 324.84,231.329 318.84,238.495 308.5,242C 304.938,269.353 296.938,295.353 284.5,320C 279.396,324.354 274.23,324.521 269,320.5C 268.138,318.913 267.471,317.246 267,315.5C 259.075,317.273 254.741,313.939 254,305.5C 253.501,299.843 253.334,294.176 253.5,288.5C 251.876,288.36 250.71,289.027 250,290.5C 248.98,297.799 248.313,305.132 248,312.5C 244.319,315.36 240.152,316.193 235.5,315C 232.913,312.087 230.746,308.92 229,305.5C 227.84,310.339 226.007,314.839 223.5,319C 217.724,321.509 212.557,320.676 208,316.5C 202.96,300.887 201.293,284.887 203,268.5C 204.135,261.218 204.801,253.885 205,246.5C 207.401,236.964 210.401,227.631 214,218.5C 216.253,211.365 215.919,204.365 213,197.5C 210.645,192.443 207.645,191.776 204,195.5C 203.254,200.162 201.087,203.995 197.5,207C 192.438,208.291 188.938,206.458 187,201.5C 184.246,189.749 188.08,180.915 198.5,175C 212.625,171.811 223.125,176.644 230,189.5C 236.203,204.537 235.703,219.37 228.5,234C 239.233,231.608 249.9,232.108 260.5,235.5C 260.833,235.167 261.167,234.833 261.5,234.5C 255.273,219.54 254.107,204.206 258,188.5C 260.392,182.774 264.226,178.274 269.5,175C 271.367,174.289 272.867,174.789 274,176.5C 275.171,178.842 276.338,181.176 277.5,183.5C 280.19,177.815 284.19,173.482 289.5,170.5 Z"/></g>
<g><path style="opacity:1" fill="#fefffe" d="M 288.5,174.5 C 290.903,174.393 292.736,175.393 294,177.5C 297.5,183.498 300.167,189.831 302,196.5C 310.753,201.185 317.42,207.852 322,216.5C 323.604,224.022 321.437,230.189 315.5,235C 311.667,237.5 307.833,240 304,242.5C 301.544,267.991 294.877,292.324 284,315.5C 281.367,320.067 277.533,321.567 272.5,320C 271.54,318.581 270.707,317.081 270,315.5C 270.018,305.176 270.184,294.843 270.5,284.5C 265.662,284.709 260.829,285.042 256,285.5C 248.768,284.878 241.601,283.878 234.5,282.5C 229.699,293.123 225.699,304.123 222.5,315.5C 212.854,319.577 208.02,316.243 208,305.5C 204.42,289.375 204.753,273.375 209,257.5C 213.914,245.593 222.747,238.427 235.5,236C 243.978,234.989 252.311,235.655 260.5,238C 262.776,240.705 264.943,243.538 267,246.5C 265.312,237.084 262.978,227.75 260,218.5C 257.101,205.794 258.768,193.794 265,182.5C 266.745,181.044 268.578,179.711 270.5,178.5C 271.799,179.09 272.632,180.09 273,181.5C 273.911,184.311 274.744,187.144 275.5,190C 273.856,193.359 273.356,196.859 274,200.5C 274.667,199.833 275.333,199.167 276,198.5C 277.779,192.277 280.112,186.277 283,180.5C 284.36,177.977 286.193,175.977 288.5,174.5 Z"/></g>
<g><path style="opacity:1" fill="#fefffe" d="M 201.5,177.5 C 217.731,177.214 227.231,185.214 230,201.5C 231.635,213.961 229.301,225.628 223,236.5C 216.667,240.167 211.667,245.167 208,251.5C 208.136,247.476 208.803,243.476 210,239.5C 214.674,229.978 217.841,219.978 219.5,209.5C 219.32,204.093 217.82,199.093 215,194.5C 211.326,188.932 206.992,188.265 202,192.5C 200.734,196.644 198.901,200.477 196.5,204C 193.692,204.92 191.525,204.087 190,201.5C 188.242,190.686 192.075,182.686 201.5,177.5 Z"/></g>
<g><path style="opacity:1" fill="#000000" d="M 96.5,186.5 C 101.945,186.425 106.112,188.758 109,193.5C 115.207,204.071 117.041,215.404 114.5,227.5C 118.987,235.758 120.154,244.425 118,253.5C 116.877,256.249 115.377,258.749 113.5,261C 122.766,266.932 129.932,274.765 135,284.5C 135.667,283.5 135.667,282.5 135,281.5C 130.111,271.723 125.777,261.723 122,251.5C 119.529,231.263 127.696,217.429 146.5,210C 155.266,207.095 160.933,209.929 163.5,218.5C 160.923,224.906 156.256,229.072 149.5,231C 140.846,237.449 138.679,245.616 143,255.5C 151.822,267.788 155.489,281.455 154,296.5C 153.466,300.768 152.133,304.768 150,308.5C 145.833,312.667 141.667,316.833 137.5,321C 127.526,329.082 116.193,331.749 103.5,329C 101.167,328 99.5,326.333 98.5,324C 94.8779,322.894 91.2113,322.561 87.5,323C 84.6116,327.447 80.6116,329.114 75.5,328C 71.0905,324.379 66.5905,320.879 62,317.5C 57.2877,309.022 57.6211,300.689 63,292.5C 63.2038,285.783 63.7038,279.117 64.5,272.5C 59.6199,270.477 55.1199,267.81 51,264.5C 50.1376,262.913 49.4709,261.246 49,259.5C 48.8122,251.722 47.8122,244.055 46,236.5C 36.5563,227.836 32.8896,217.169 35,204.5C 35.7387,203.426 36.7387,202.759 38,202.5C 46.3477,205.005 54.5144,208.005 62.5,211.5C 70.3428,207.564 78.6761,205.731 87.5,206C 90.1119,199.279 93.1119,192.779 96.5,186.5 Z"/></g>
<g><path style="opacity:1" fill="#fefffe" d="M 97.5,189.5 C 103.847,192.023 108.013,196.69 110,203.5C 112.4,211.396 112.9,219.396 111.5,227.5C 113.762,233.12 115.095,238.953 115.5,245C 115.213,255.298 110.213,262.298 100.5,266C 92.5977,264.674 84.5977,264.341 76.5,265C 74.0461,266.829 71.7128,268.662 69.5,270.5C 64.9409,269.221 60.6075,267.388 56.5,265C 54.1898,263.363 52.6898,261.196 52,258.5C 51.8626,251.043 50.8626,243.709 49,236.5C 41.143,228.789 37.143,219.456 37,208.5C 38.4178,206.637 40.2511,206.137 42.5,207C 46.7225,208.944 51.0558,210.611 55.5,212C 57.3058,212.81 58.8058,213.976 60,215.5C 69.6073,210.759 79.7739,208.759 90.5,209.5C 92.8264,202.844 95.1597,196.177 97.5,189.5 Z"/></g>
<g><path style="opacity:1" fill="#000000" d="M 339.5,200.5 C 340.675,200.281 341.675,200.614 342.5,201.5C 338.256,204.633 333.589,206.466 328.5,207C 331.933,204.289 335.6,202.123 339.5,200.5 Z"/></g>
<g><path style="opacity:1" fill="#000000" d="M 338.5,207.5 C 340.527,207.338 342.527,207.505 344.5,208C 340.481,210.338 336.147,211.004 331.5,210C 334.004,209.302 336.337,208.469 338.5,207.5 Z"/></g>
<g><path style="opacity:1" fill="#000000" d="M 304.5,208.5 C 305.822,208.33 306.989,208.663 308,209.5C 310.258,212.278 310.758,215.278 309.5,218.5C 306.78,215.726 305.113,212.393 304.5,208.5 Z"/></g>
<g><path style="opacity:1" fill="#fefffe" d="M 146.5,212.5 C 149.85,212.335 153.183,212.502 156.5,213C 160.675,217.306 160.342,221.306 155.5,225C 142.023,228.807 136.19,237.64 138,251.5C 141.224,259.718 144.891,267.718 149,275.5C 154.074,291.688 150.408,305.354 138,316.5C 139.343,306.279 139.676,295.945 139,285.5C 135.494,275.65 131.494,265.984 127,256.5C 121.783,236.603 128.283,221.936 146.5,212.5 Z"/></g>
<g><path style="opacity:1" fill="#000000" d="M 334.5,215.5 C 337.976,214.357 341.642,214.19 345.5,215C 341.974,216.778 338.307,216.945 334.5,215.5 Z"/></g>
<g><path style="opacity:1" fill="#000000" d="M 98.5,248.5 C 103.933,247.813 104.599,248.979 100.5,252C 97.5807,253.14 94.5807,253.973 91.5,254.5C 89.6814,254.658 88.3481,253.991 87.5,252.5C 91.326,251.304 94.9927,249.971 98.5,248.5 Z"/></g>
<g><path style="opacity:1" fill="#000000" d="M 56.5,253.5 C 61.1962,253.903 65.8628,254.57 70.5,255.5C 70.2907,256.086 69.9574,256.586 69.5,257C 64.5243,258.038 59.8576,257.372 55.5,255C 56.056,254.617 56.3893,254.117 56.5,253.5 Z"/></g>
<g><path style="opacity:1" fill="#000000" d="M 37.5,257.5 C 39.924,257.192 42.2573,257.526 44.5,258.5C 38.4045,260.024 32.4045,261.524 26.5,263C 29.9905,260.588 33.6571,258.755 37.5,257.5 Z"/></g>
<g><path style="opacity:1" fill="#000000" d="M 43.5,261.5 C 45.5492,261.706 45.8825,262.539 44.5,264C 23.5768,272.751 23.2434,271.918 43.5,261.5 Z"/></g>
<g><path style="opacity:1" fill="#fefffe" d="M 109.5,263.5 C 125.917,271.799 134.584,285.299 135.5,304C 136,319.5 128.5,327 113,326.5C 110.167,326.333 107.333,326.167 104.5,326C 103.643,325.311 102.977,324.478 102.5,323.5C 105.463,318.685 109.796,316.519 115.5,317C 108.86,314.233 103.36,315.733 99,321.5C 95.3575,319.828 91.6908,319.495 88,320.5C 87.4063,313.672 86.0729,307.005 84,300.5C 84.2037,307.824 84.2037,315.157 84,322.5C 79.6942,326.675 75.6942,326.342 72,321.5C 67.8904,305.689 66.3904,289.689 67.5,273.5C 68.79,272.592 70.1233,272.759 71.5,274C 72.7899,276.292 74.4565,278.292 76.5,280C 84.5052,283.439 92.1719,287.439 99.5,292C 103.428,293.325 107.428,293.658 111.5,293C 113.881,291.401 115.047,289.235 115,286.5C 110.832,290.764 105.998,291.597 100.5,289C 92.135,284.485 83.8017,279.985 75.5,275.5C 73.7168,272.22 74.3835,269.72 77.5,268C 86.4935,266.761 95.1602,267.928 103.5,271.5C 103.762,269.868 102.762,268.701 100.5,268C 103.823,266.96 106.823,265.46 109.5,263.5 Z"/></g>
<g><path style="opacity:1" fill="#000000" d="M 44.5,266.5 C 45.552,266.351 46.552,266.517 47.5,267C 44.6312,270.204 41.4646,273.037 38,275.5C 37.3333,274.833 37.3333,274.167 38,273.5C 40.3722,271.297 42.5389,268.963 44.5,266.5 Z"/></g>
<g><path style="opacity:1" fill="#fefffe" d="M 237.5,285.5 C 240.302,286.576 243.135,287.576 246,288.5C 246.326,296.585 245.492,304.419 243.5,312C 238.03,313.221 234.53,311.054 233,305.5C 232.333,302.167 232.333,298.833 233,295.5C 234.254,291.996 235.754,288.663 237.5,285.5 Z"/></g>
<g><path style="opacity:1" fill="#fefffe" d="M 265.5,287.5 C 266.765,288.514 267.431,290.014 267.5,292C 266.678,299.144 266.344,306.31 266.5,313.5C 262.317,314.154 259.484,312.488 258,308.5C 256.726,301.897 256.226,295.23 256.5,288.5C 259.713,288.81 262.713,288.477 265.5,287.5 Z"/></g>
<g><path style="opacity:1" fill="#fefffe" d="M 63.5,297.5 C 65.195,303.999 66.3616,310.666 67,317.5C 64.8515,316.023 63.5182,314.023 63,311.5C 62.3523,306.796 62.519,302.129 63.5,297.5 Z"/></g>
<g><path style="opacity:1" fill="#252625" d="M 97.5,345.5 C 98.6453,349.311 98.8119,353.311 98,357.5C 97.5,357 97,356.5 96.5,356C 96.2831,352.59 96.6165,349.09 97.5,345.5 Z"/></g>
<g><path style="opacity:1" fill="#252625" d="M 170.5,345.5 C 171.224,347.218 171.891,349.052 172.5,351C 171.736,353.069 171.236,355.236 171,357.5C 170.501,353.514 170.334,349.514 170.5,345.5 Z"/></g>
<g><path style="opacity:1" fill="#252625" d="M 223.5,345.5 C 224.224,347.218 224.891,349.052 225.5,351C 224.736,353.069 224.236,355.236 224,357.5C 223.501,353.514 223.334,349.514 223.5,345.5 Z"/></g>
<g><path style="opacity:1" fill="#252625" d="M 251.5,345.5 C 252.645,349.311 252.812,353.311 252,357.5C 251.5,357 251,356.5 250.5,356C 250.283,352.59 250.616,349.09 251.5,345.5 Z"/></g>
<g><path style="opacity:1" fill="#252625" d="M 70.5,347.5 C 71.7082,346.218 73.0416,346.218 74.5,347.5C 73.4425,347.906 72.1092,347.906 70.5,347.5 Z"/></g>
<g><path style="opacity:1" fill="#252625" d="M 129.5,347.5 C 133.991,346.259 135.324,346.259 133.5,347.5C 133.5,350.5 133.5,353.5 133.5,356.5C 133.167,357.833 132.833,357.833 132.5,356.5C 132.5,353.5 132.5,350.5 132.5,347.5C 131.5,347.5 130.5,347.5 129.5,347.5 Z"/></g>
<g><path style="opacity:1" fill="#252625" d="M 164.5,347.5 C 165.708,346.218 167.042,346.218 168.5,347.5C 167.443,347.906 166.109,347.906 164.5,347.5 Z"/></g>
<g><path style="opacity:1" fill="#252625" d="M 106.5,347.5 C 107.309,348.469 108.309,349.302 109.5,350C 107.862,352.133 107.029,354.633 107,357.5C 106.971,354.633 106.138,352.133 104.5,350C 105.756,349.583 106.423,348.75 106.5,347.5 Z"/></g>
<g><path style="opacity:1" fill="#252625" d="M 218.5,347.5 C 219.309,348.469 220.309,349.302 221.5,350C 219.862,352.133 219.029,354.633 219,357.5C 218.971,354.633 218.138,352.133 216.5,350C 217.756,349.583 218.423,348.75 218.5,347.5 Z"/></g>
<g><path style="opacity:1" fill="#252625" d="M 298.5,347.5 C 299.309,348.469 300.309,349.302 301.5,350C 299.862,352.133 299.029,354.633 299,357.5C 298.971,354.633 298.138,352.133 296.5,350C 297.756,349.583 298.423,348.75 298.5,347.5 Z"/></g>
<g><path style="opacity:1" fill="#252625" d="M 120.5,348.5 C 124.339,348.612 124.339,349.279 120.5,350.5C 119.537,350.03 119.537,349.363 120.5,348.5 Z"/></g>
<g><path style="opacity:1" fill="#252625" d="M 78.5,350.5 C 77.7904,352.746 77.2904,355.08 77,357.5C 76.3333,354.833 76.3333,352.167 77,349.5C 77.3826,350.056 77.8826,350.389 78.5,350.5 Z"/></g>
<g><path style="opacity:1" fill="#252625" d="M 78.5,350.5 C 79.209,349.596 80.209,349.263 81.5,349.5C 81.6495,350.552 81.4828,351.552 81,352.5C 80.5831,351.244 79.7498,350.577 78.5,350.5 Z"/></g>
<g><path style="opacity:1" fill="#252625" d="M 153.5,349.5 C 154.267,350.172 154.934,351.005 155.5,352C 154.751,353.734 154.251,355.567 154,357.5C 153.503,354.854 153.336,352.187 153.5,349.5 Z"/></g>
<g><path style="opacity:1" fill="#252625" d="M 204.5,349.5 C 205.267,350.172 205.934,351.005 206.5,352C 205.751,353.734 205.251,355.567 205,357.5C 204.503,354.854 204.336,352.187 204.5,349.5 Z"/></g>
<g><path style="opacity:1" fill="#252625" d="M 264.5,350.5 C 265.386,349.224 266.386,349.224 267.5,350.5C 266.767,351.087 265.767,351.087 264.5,350.5 Z"/></g>
<g><path style="opacity:1" fill="#252625" d="M 279.5,350.5 C 278.79,352.746 278.29,355.08 278,357.5C 277.333,354.833 277.333,352.167 278,349.5C 278.383,350.056 278.883,350.389 279.5,350.5 Z"/></g>
<g><path style="opacity:1" fill="#252625" d="M 279.5,350.5 C 280.209,349.596 281.209,349.263 282.5,349.5C 282.649,350.552 282.483,351.552 282,352.5C 281.583,351.244 280.75,350.577 279.5,350.5 Z"/></g>
<g><path style="opacity:1" fill="#252625" d="M 290.5,350.5 C 289.659,352.379 289.325,354.379 289.5,356.5C 293.5,356.833 293.5,357.167 289.5,357.5C 288.049,358.401 287.882,355.735 289,349.5C 289.383,350.056 289.883,350.389 290.5,350.5 Z"/></g>
<g><path style="opacity:1" fill="#252625" d="M 290.5,350.5 C 291.542,349.209 292.708,349.209 294,350.5C 294.667,352.167 294.667,353.833 294,355.5C 293.667,354.167 293.333,352.833 293,351.5C 292.329,350.748 291.496,350.414 290.5,350.5 Z"/></g>
<g><path style="opacity:1" fill="#252625" d="M 315.5,349.5 C 316.267,350.172 316.934,351.005 317.5,352C 316.751,353.734 316.251,355.567 316,357.5C 315.503,354.854 315.336,352.187 315.5,349.5 Z"/></g>
<g><path style="opacity:1" fill="#252625" d="M 123.5,350.5 C 124.776,351.386 124.776,352.386 123.5,353.5C 122.913,352.767 122.913,351.767 123.5,350.5 Z"/></g>
<g><path style="opacity:1" fill="#252625" d="M 83.5,352.5 C 85.3675,353.786 85.5342,355.119 84,356.5C 83.51,355.207 83.3433,353.873 83.5,352.5 Z"/></g>
<g><path style="opacity:1" fill="#252625" d="M 179.5,352.5 C 181.368,353.786 181.534,355.119 180,356.5C 179.51,355.207 179.343,353.873 179.5,352.5 Z"/></g>
<g><path style="opacity:1" fill="#252625" d="M 187.5,352.5 C 189.368,353.786 189.534,355.119 188,356.5C 187.51,355.207 187.343,353.873 187.5,352.5 Z"/></g>
<g><path style="opacity:1" fill="#252625" d="M 232.5,352.5 C 234.368,353.786 234.534,355.119 233,356.5C 232.51,355.207 232.343,353.873 232.5,352.5 Z"/></g>
<g><path style="opacity:1" fill="#252625" d="M 254.5,352.5 C 256.368,353.786 256.534,355.119 255,356.5C 254.51,355.207 254.343,353.873 254.5,352.5 Z"/></g>
<g><path style="opacity:1" fill="#252625" d="M 171.5,360.5 C 172.224,362.218 172.891,364.052 173.5,366C 172.736,368.069 172.236,370.236 172,372.5C 171.501,368.514 171.334,364.514 171.5,360.5 Z"/></g>
<g><path style="opacity:1" fill="#252625" d="M 195.5,360.5 C 196.317,362.969 196.817,365.635 197,368.5C 197.718,367.549 198.551,367.383 199.5,368C 197.68,368.979 196.513,370.479 196,372.5C 195.501,368.514 195.334,364.514 195.5,360.5 Z"/></g>
<g><path style="opacity:1" fill="#252625" d="M 166.5,362.5 C 167.309,363.469 168.309,364.302 169.5,365C 167.862,367.133 167.029,369.633 167,372.5C 166.971,369.633 166.138,367.133 164.5,365C 165.756,364.583 166.423,363.75 166.5,362.5 Z"/></g>
<g><path style="opacity:1" fill="#252625" d="M 186.5,371.5 C 185.761,371.631 185.094,371.464 184.5,371C 185.406,369.301 185.739,367.467 185.5,365.5C 181.828,364.955 182.162,364.622 186.5,364.5C 186.5,366.833 186.5,369.167 186.5,371.5 Z"/></g>
<g><path style="opacity:1" fill="#252625" d="M 186.5,371.5 C 187.314,369.369 187.814,367.036 188,364.5C 189.282,367.052 189.116,369.719 187.5,372.5C 186.893,372.376 186.56,372.043 186.5,371.5 Z"/></g>
<g><path style="opacity:1" fill="#252625" d="M 228.5,364.5 C 229.473,366.948 229.806,369.615 229.5,372.5C 223.833,372.336 223.5,372.003 228.5,371.5C 228.5,369.167 228.5,366.833 228.5,364.5 Z"/></g>
</svg>
